<svg width="32" height="32" viewBox="0 0 32 32" fill="none" xmlns="http://www.w3.org/2000/svg">
<path d="M11.2711 25.7664C11.2711 25.8987 11.1269 26.0046 10.9451 26.0046C10.7382 26.0244 10.594 25.9185 10.594 25.7664C10.594 25.634 10.7382 25.5281 10.92 25.5281C11.1081 25.5083 11.2711 25.6142 11.2711 25.7664ZM9.3212 25.4686C9.27731 25.6009 9.40271 25.7531 9.59081 25.7928C9.75383 25.859 9.94192 25.7928 9.97954 25.6605C10.0172 25.5281 9.89803 25.376 9.70994 25.3164C9.54692 25.2701 9.36509 25.3363 9.3212 25.4686ZM12.0925 25.3561C11.9107 25.4024 11.7853 25.5281 11.8041 25.6803C11.8229 25.8127 11.9859 25.8987 12.174 25.8524C12.3558 25.8061 12.4812 25.6803 12.4624 25.548C12.4436 25.4223 12.2743 25.3363 12.0925 25.3561ZM16.2181 0C7.52174 0 0.869385 6.96764 0.869385 16.1453C0.869385 23.4835 5.24577 29.763 11.4969 31.973C12.2994 32.1252 12.5815 31.6025 12.5815 31.1724C12.5815 30.7621 12.5627 28.4991 12.5627 27.1096C12.5627 27.1096 8.17381 28.1021 7.25214 25.1377C7.25214 25.1377 6.53737 23.2122 5.50911 22.7159C5.50911 22.7159 4.0733 21.6771 5.60943 21.6969C5.60943 21.6969 7.17063 21.8293 8.0296 23.4041C9.40271 25.9582 11.7038 25.2238 12.6004 24.787C12.7446 23.7283 13.1521 22.9939 13.6035 22.5571C10.0987 22.1469 6.56245 21.6109 6.56245 15.2454C6.56245 13.4258 7.03896 12.5126 8.04214 11.348C7.87913 10.9179 7.34619 9.14461 8.20516 6.85515C9.51557 6.42505 12.5314 8.64172 12.5314 8.64172C13.7854 8.27117 15.1334 8.07928 16.4689 8.07928C17.8044 8.07928 19.1524 8.27117 20.4064 8.64172C20.4064 8.64172 23.4222 6.41843 24.7326 6.85515C25.5916 9.15122 25.0586 10.9179 24.8956 11.348C25.8988 12.5192 26.5133 13.4324 26.5133 15.2454C26.5133 21.6308 22.8203 22.1403 19.3154 22.5571C19.8922 23.0799 20.3813 24.0724 20.3813 25.6274C20.3813 27.8573 20.3625 30.6166 20.3625 31.1592C20.3625 31.5893 20.6509 32.112 21.4472 31.9598C27.7171 29.763 31.9681 23.4835 31.9681 16.1453C31.9681 6.96764 24.9144 0 16.2181 0ZM6.96372 22.8218C6.88221 22.888 6.90102 23.0402 7.00761 23.1659C7.10793 23.2718 7.25214 23.3181 7.33365 23.2321C7.41515 23.1659 7.39635 23.0137 7.28976 22.888C7.18944 22.7821 7.04523 22.7358 6.96372 22.8218ZM6.28657 22.2858C6.24268 22.3719 6.30538 22.4777 6.43078 22.5439C6.5311 22.6101 6.6565 22.5902 6.70039 22.4976C6.74428 22.4116 6.68158 22.3057 6.55618 22.2395C6.43078 22.1998 6.33046 22.2197 6.28657 22.2858ZM8.31802 24.6415C8.2177 24.7275 8.25532 24.926 8.39953 25.0517C8.54374 25.2039 8.72556 25.2238 8.80707 25.1179C8.88858 25.0319 8.85096 24.8334 8.72556 24.7076C8.58762 24.5555 8.39953 24.5356 8.31802 24.6415ZM7.60325 23.6688C7.50293 23.735 7.50293 23.907 7.60325 24.0592C7.70357 24.2114 7.87286 24.2775 7.95437 24.2114C8.05468 24.1254 8.05468 23.9533 7.95437 23.8011C7.86659 23.6489 7.70357 23.5828 7.60325 23.6688Z" fill="#1F4068"/>
</svg>
