<svg width="28" height="32" viewBox="0 0 28 32" fill="none" xmlns="http://www.w3.org/2000/svg">
<path d="M26.5742 8C25.7423 6.44063 15.5376 0 13.8756 0C12.2135 0 2.00488 6.42438 1.17816 8C0.351439 9.57562 0.346849 22.425 1.17816 24C2.00947 25.575 12.2153 32 13.8756 32C15.5359 32 25.7423 25.5675 26.5736 24C27.4049 22.4325 27.406 9.5625 26.5742 8ZM17.3161 25.8888C17.0867 25.8888 14.9691 23.6531 15.136 23.4706C15.1859 23.4163 15.4952 23.3781 16.1429 23.3563C16.1429 21.7169 16.1768 19.0694 16.1968 17.9613C16.1968 17.8363 16.1716 17.7469 16.1716 17.5956H11.5859C11.5859 18.0394 11.5595 19.8581 11.6645 22.1506C11.6777 22.4344 11.5738 22.5256 11.3352 22.5219C10.754 22.5219 10.1723 22.515 9.59052 22.5169C9.3553 22.5169 9.25375 22.4212 9.26121 22.135C9.31399 20.045 9.43332 16.885 9.2526 8.84313V8.645C8.69782 8.62313 8.31286 8.5825 8.26237 8.53C8.09485 8.3475 10.244 6.11188 10.4706 6.11188C10.6972 6.11188 12.8326 8.34812 12.6662 8.53C12.6163 8.58437 12.213 8.62313 11.7041 8.645V8.8425C11.5652 10.4519 11.5893 13.8169 11.5532 15.4294H16.1578C16.1578 15.145 16.1802 13.2581 16.089 10.2019C16.0832 9.99 16.1435 9.87875 16.3305 9.87687C16.9656 9.87187 17.6013 9.86875 18.237 9.87313C18.4355 9.87313 18.4991 9.98063 18.4951 10.2094C18.284 22.165 18.4561 21.3306 18.4561 23.3556C18.965 23.3775 19.4211 23.4181 19.471 23.4706C19.6362 23.6525 17.5422 25.8888 17.315 25.8888H17.3161Z" fill="#1F4068"/>
</svg>
