<svg width="33" height="32" viewBox="0 0 33 32" fill="none" xmlns="http://www.w3.org/2000/svg">
<path d="M16.0258 7.7956C11.4792 7.7956 7.81185 11.4587 7.81185 16C7.81185 20.5413 11.4792 24.2044 16.0258 24.2044C20.5725 24.2044 24.2398 20.5413 24.2398 16C24.2398 11.4587 20.5725 7.7956 16.0258 7.7956ZM16.0258 21.3339C13.0877 21.3339 10.6857 18.9419 10.6857 16C10.6857 13.0581 13.0805 10.6661 16.0258 10.6661C18.9711 10.6661 21.366 13.0581 21.366 16C21.366 18.9419 18.964 21.3339 16.0258 21.3339ZM26.4917 7.46C26.4917 8.52393 25.6338 9.37365 24.5758 9.37365C23.5106 9.37365 22.6599 8.51679 22.6599 7.46C22.6599 6.40321 23.5178 5.54636 24.5758 5.54636C25.6338 5.54636 26.4917 6.40321 26.4917 7.46ZM31.9319 9.40221C31.8104 6.83878 31.2242 4.56811 29.344 2.69731C27.4711 0.826509 25.1977 0.240991 22.6313 0.112462C19.9863 -0.0374874 12.0582 -0.0374874 9.41319 0.112462C6.85392 0.23385 4.5806 0.819368 2.70046 2.69017C0.820325 4.56097 0.241272 6.83164 0.112594 9.39507C-0.0375312 12.037 -0.0375312 19.9558 0.112594 22.5978C0.234123 25.1612 0.820325 27.4319 2.70046 29.3027C4.5806 31.1735 6.84677 31.759 9.41319 31.8875C12.0582 32.0375 19.9863 32.0375 22.6313 31.8875C25.1977 31.7661 27.4711 31.1806 29.344 29.3027C31.217 27.4319 31.8032 25.1612 31.9319 22.5978C32.082 19.9558 32.082 12.0442 31.9319 9.40221ZM28.5148 25.4326C27.9572 26.8321 26.8777 27.9103 25.4694 28.4744C23.3605 29.3098 18.3563 29.117 16.0258 29.117C13.6953 29.117 8.68401 29.3027 6.58226 28.4744C5.18109 27.9174 4.10163 26.8392 3.53687 25.4326C2.70046 23.3261 2.89348 18.3278 2.89348 16C2.89348 13.6722 2.70761 8.66674 3.53687 6.56744C4.09448 5.16791 5.17395 4.0897 6.58226 3.52561C8.69116 2.69017 13.6953 2.88296 16.0258 2.88296C18.3563 2.88296 23.3677 2.69731 25.4694 3.52561C26.8706 4.08256 27.95 5.16077 28.5148 6.56744C29.3512 8.67388 29.1582 13.6722 29.1582 16C29.1582 18.3278 29.3512 23.3333 28.5148 25.4326Z" fill="#1F4068"/>
</svg>
