<svg width="35" height="32" viewBox="0 0 35 32" fill="none" xmlns="http://www.w3.org/2000/svg">
<path d="M8.32412 32H1.36409V10.6352H8.32412V32ZM4.84036 7.72089C2.61477 7.72089 0.80957 5.9637 0.80957 3.84223C0.80957 2.82321 1.23424 1.84592 1.99016 1.12536C2.74608 0.404805 3.77133 0 4.84036 0C5.90939 0 6.93464 0.404805 7.69056 1.12536C8.44648 1.84592 8.87115 2.82321 8.87115 3.84223C8.87115 5.9637 7.0652 7.72089 4.84036 7.72089ZM34.3733 32H27.4282V21.5998C27.4282 19.1211 27.3758 15.9425 23.8096 15.9425C20.1909 15.9425 19.6364 18.6354 19.6364 21.4212V32H12.6839V10.6352H19.3591V13.5496H19.4566C20.3858 11.871 22.6556 10.0995 26.0419 10.0995C33.0859 10.0995 34.3808 14.521 34.3808 20.264V32H34.3733Z" fill="#1F4068"/>
</svg>
