<svg width="34" height="32" viewBox="0 0 34 32" fill="none" xmlns="http://www.w3.org/2000/svg">
<path d="M28.63 4.65C25.4903 1.65 21.3089 0 16.8654 0C7.69344 0 0.230021 7.11429 0.230021 15.8571C0.230021 18.65 0.994347 21.3786 2.44807 23.7857L0.0876465 32L8.90737 29.7929C11.3352 31.0571 14.0703 31.7214 16.8579 31.7214H16.8654C26.0298 31.7214 33.6581 24.6071 33.6581 15.8643C33.6581 11.6286 31.7697 7.65 28.63 4.65ZM16.8654 29.05C14.3775 29.05 11.9422 28.4143 9.82157 27.2143L9.31951 26.9286L4.08912 28.2357L5.48289 23.3714L5.15318 22.8714C3.7669 20.7714 3.04004 18.35 3.04004 15.8571C3.04004 8.59286 9.24457 2.67857 16.8729 2.67857C20.5671 2.67857 24.0365 4.05 26.6442 6.54286C29.2519 9.03572 30.8555 12.3429 30.848 15.8643C30.848 23.1357 24.4861 29.05 16.8654 29.05ZM24.4487 19.1786C24.0365 18.9786 21.9908 18.0214 21.6087 17.8929C21.2265 17.7571 20.9493 17.6929 20.672 18.0929C20.3947 18.4929 19.6004 19.3786 19.3532 19.65C19.1134 19.9143 18.8661 19.95 18.454 19.75C16.0111 18.5857 14.4075 17.6714 12.7964 15.0357C12.3693 14.3357 13.2236 14.3857 14.0179 12.8714C14.1527 12.6071 14.0853 12.3786 13.9804 12.1786C13.8755 11.9786 13.0437 10.0286 12.699 9.23571C12.3618 8.46429 12.0171 8.57143 11.7624 8.55714C11.5226 8.54286 11.2453 8.54286 10.9681 8.54286C10.6908 8.54286 10.2412 8.64286 9.85903 9.03572C9.47687 9.43571 8.40531 10.3929 8.40531 12.3429C8.40531 14.2929 9.8965 16.1786 10.0988 16.4429C10.3086 16.7071 13.0287 20.7071 17.2026 22.4286C19.8402 23.5143 20.8743 23.6071 22.1932 23.4214C22.995 23.3071 24.651 22.4643 24.9957 21.5357C25.3404 20.6071 25.3404 19.8143 25.2355 19.65C25.1381 19.4714 24.8608 19.3714 24.4487 19.1786Z" fill="#1F4068"/>
</svg>
