<svg width="557" height="433" viewBox="0 0 557 433" fill="none" xmlns="http://www.w3.org/2000/svg">
<g clip-path="url(#clip0)">
<path d="M504.783 355.112C499.548 349.544 487.434 344.773 471.209 341.615V269.843H470.467V269.101H457.07V269.843H436.021C437.907 258.983 444.198 221.118 442.931 205.911C442.931 205.911 459.285 161.313 445.904 124.144C445.904 124.144 459.301 127.117 460.775 112.249C461.975 100.246 475.758 73.7251 459.929 58.4659C456.214 54.5713 450.691 51.3515 442.715 49.193L438.845 38.3745C441.37 34.382 442.931 28.9934 442.931 23.0536C442.931 15.0531 440.118 8.04171 435.903 4.10587C433.476 1.53005 430.513 -0.0154419 427.313 -0.0154419C424.876 0.0219177 422.521 0.866203 420.615 2.38522C420.893 2.59644 421.161 2.82311 421.429 3.06008C416.539 6.71259 413.185 14.2803 413.185 23.0278C413.185 29.6477 415.117 35.5772 418.173 39.6624L416.158 52.7631C416.158 52.7631 374.525 42.3722 392.373 112.249C392.373 112.249 396.835 124.144 404.271 124.144C404.271 124.144 399.808 177.664 407.244 196.993C407.244 196.993 404.271 244.569 410.222 254.975V269.843H373.041V343.459C354.007 347.818 341.81 354.51 341.81 362.005C341.81 375.147 379.095 385.796 425.087 385.796C471.08 385.796 508.359 375.168 508.359 362.021C508.359 359.62 507.102 357.302 504.783 355.112Z" fill="#F2F2F2"/>
<path d="M211.732 362.912C206.873 357.73 195.589 353.294 180.466 350.352V283.561H179.775V282.871H167.322V283.561H147.742C149.499 273.459 155.352 238.227 154.172 224.07C154.172 224.07 169.393 182.564 156.939 147.976C156.939 147.976 169.393 150.742 170.779 136.91C171.897 125.741 184.722 101.06 169.991 86.8617C166.533 83.2556 161.396 80.2419 153.976 78.243L150.369 68.1562C152.724 64.4367 154.172 59.4293 154.172 53.8964C154.172 46.4523 151.56 39.9303 147.633 36.2675C145.376 33.8669 142.62 32.4553 139.642 32.4553C137.376 32.4912 135.187 33.2776 133.417 34.6911C133.675 34.8869 133.932 35.0981 134.175 35.3145C129.625 38.7146 126.497 45.7568 126.497 53.8964C126.497 60.0784 128.301 65.5752 131.135 69.3513L129.259 81.5401C129.259 81.5401 90.5164 71.855 107.103 136.884C107.103 136.884 111.256 147.95 118.176 147.95C118.176 147.95 114.023 197.756 120.943 215.745C120.943 215.745 118.176 260.018 123.71 269.704V283.536H89.1355V352.052C71.4258 356.107 60.0746 362.356 60.0746 369.326C60.0746 381.551 94.7724 391.478 137.57 391.478C180.368 391.478 215.061 381.566 215.061 369.326C215.061 367.105 213.891 364.947 211.732 362.912Z" fill="#F2F2F2"/>
<path d="M325.744 359.424C322.138 355.561 313.718 352.258 302.455 350.069V300.325H301.939V299.81H292.665V300.325H278.083C279.391 292.798 283.75 266.551 282.875 256.021C282.875 256.021 294.21 225.111 284.936 199.353C284.936 199.353 294.21 201.413 295.241 191.11C296.076 182.79 305.629 164.409 294.653 153.833C292.077 151.133 288.254 148.903 282.725 147.414L280.046 139.887C281.96 136.679 282.941 133 282.88 129.265C282.88 123.722 280.932 118.864 278.005 116.133C276.326 114.346 274.275 113.295 272.059 113.295C270.371 113.323 268.74 113.91 267.422 114.964C267.618 115.108 267.803 115.263 267.989 115.428C264.598 117.957 262.269 123.201 262.269 129.265C262.269 133.855 263.614 137.966 265.732 140.794L264.33 149.876C264.33 149.876 235.475 142.664 247.842 191.09C247.842 191.09 250.933 199.332 256.086 199.332C256.086 199.332 252.994 236.424 258.147 249.818C258.147 249.818 256.086 282.789 260.208 290.001V300.304H234.445V351.305C221.254 354.324 212.804 358.966 212.804 364.185C212.804 373.293 238.644 380.67 270.513 380.67C302.382 380.67 328.223 373.287 328.223 364.185C328.223 362.546 327.352 360.939 325.744 359.424Z" fill="#F2F2F2"/>
<path d="M535.957 367.863C533.823 365.586 528.872 363.638 522.235 362.345V333.033H521.931V332.729H516.464V333.033H507.87C508.642 328.597 511.214 313.127 510.693 306.919C510.693 306.919 517.392 288.698 511.909 273.516C511.909 273.516 517.376 274.731 517.984 268.658C518.499 263.759 524.105 252.925 517.639 246.691C516.119 245.099 513.862 243.786 510.606 242.91L509.024 238.479C510.153 236.59 510.732 234.421 510.693 232.22C510.693 228.954 509.544 226.09 507.823 224.493C507.387 223.985 506.849 223.574 506.245 223.286C505.641 222.998 504.983 222.839 504.314 222.818C503.32 222.836 502.36 223.182 501.583 223.802C501.698 223.888 501.808 223.979 501.913 224.075C499.919 225.564 498.548 228.655 498.548 232.231C498.5 234.656 499.221 237.035 500.609 239.026L499.785 244.378C499.785 244.378 482.781 240.128 490.067 268.668C490.067 268.668 491.891 273.526 494.926 273.526C494.926 273.526 493.107 295.39 496.142 303.282C496.142 303.282 494.926 322.719 497.358 326.979V333.053H482.148V363.123C474.372 364.901 469.39 367.636 469.39 370.701C469.39 376.069 484.621 380.422 503.397 380.422C522.173 380.422 537.404 376.069 537.404 370.701C537.42 369.702 536.905 368.754 535.957 367.863Z" fill="#F2F2F2"/>
<path d="M92.8299 367.863C90.6967 365.586 85.745 363.638 79.1084 362.345V333.033H78.8044V332.729H73.3375V333.033H64.7429C65.5158 328.597 68.0869 313.127 67.5665 306.919C67.5665 306.919 74.2649 288.698 68.7825 273.516C68.7825 273.516 74.2495 274.732 74.8575 268.658C75.347 263.759 80.9788 252.925 74.5123 246.691C72.9665 245.099 70.7354 243.786 67.4789 242.91L65.8971 238.479C67.0268 236.59 67.6051 234.422 67.5665 232.22C67.5665 228.954 66.4175 226.09 64.6965 224.493C64.2601 223.985 63.7226 223.574 63.1185 223.286C62.5143 222.998 61.8567 222.839 61.1876 222.818C60.1936 222.836 59.2334 223.182 58.4567 223.802C58.5714 223.888 58.6814 223.979 58.7864 224.075C56.7924 225.564 55.4218 228.655 55.4218 232.231C55.3663 234.65 56.0768 237.024 57.4519 239.015L56.6275 244.368C56.6275 244.368 39.6238 240.118 46.9096 268.658C46.9096 268.658 48.7336 273.516 51.7685 273.516C51.7685 273.516 49.9497 295.379 52.9846 303.272C52.9846 303.272 51.7685 322.709 54.2006 326.969V333.043H39.0209V363.113C31.2456 364.89 26.263 367.626 26.263 370.691C26.263 376.059 41.4942 380.412 60.2704 380.412C79.0466 380.412 94.2778 376.059 94.2778 370.691C94.2932 369.702 93.778 368.754 92.8299 367.863Z" fill="#F2F2F2"/>
<path d="M0 370.083H557C557 370.083 536.389 426.092 483.59 406.145C430.791 386.197 399.237 410.008 370.258 420.95C341.28 431.892 283.328 440.269 268.519 423.526C253.711 406.783 240.18 399.061 188.03 405.495C135.88 411.93 101.739 425.453 95.2825 407.427C88.8263 389.402 87.5536 383.606 50.8514 386.821C14.1491 390.035 0 370.083 0 370.083Z" fill="#2F2E41"/>
<path d="M327.058 190.585C320.803 201.218 319.845 214.014 317.737 226.162C314.429 244.986 307.947 263.14 304.681 281.975C303.542 288.564 302.805 295.245 300.996 301.68C298.513 310.52 294.082 318.68 289.923 326.845C282.844 340.796 276.418 355.303 273.775 370.722C272.951 375.528 273.595 382.055 278.356 383.086C279.716 383.39 281.246 383.148 282.406 383.92C283.086 384.369 283.519 385.095 284.065 385.698C286.157 388.006 289.759 388.273 292.747 387.434C295.736 386.594 298.343 384.75 301.115 383.312C312.121 377.646 325.167 378.321 337.513 379.124C339.785 379.268 342.336 379.552 343.774 381.324C344.5 382.225 344.804 383.385 345.345 384.415C347.262 388.15 352.322 389.886 356.124 388.114C357.547 387.449 358.768 386.383 360.247 385.837C364.765 384.152 369.521 387.805 374.36 387.83C381.316 387.861 386.551 380.495 393.502 380.242C398.242 380.072 402.575 383.302 407.316 383.333C410.871 383.333 414.148 381.54 417.24 379.794L438.366 367.863C432.718 359.965 425.8 353.058 417.894 347.421C412.077 343.3 410.505 335.057 406.955 328.875C404.611 324.785 402.241 320.633 401.097 316.063C400.272 312.766 400.107 309.335 399.293 306.033C398.165 301.479 395.841 297.332 393.996 293.02C386.68 275.937 386.927 256.443 380.223 239.108C378.337 234.224 375.911 229.552 374.236 224.591C372.031 218.058 371.17 211.135 368.944 204.613C366.718 198.091 362.761 191.687 356.449 188.879C353.71 187.753 350.793 187.12 347.834 187.009C340.46 186.535 333.901 187.803 327.058 190.585Z" fill="#3F3D56"/>
<path d="M354.553 103.95H325.162V143.133H354.553V103.95Z" fill="#FBC661"/>
<path d="M353.759 134.344C352.265 134.112 350.74 134.344 349.23 134.344C345.515 134.298 344.459 138.785 340.754 139.151C336.235 139.594 329.97 136.735 326.193 139.259C325.502 139.74 324.771 140.161 324.008 140.516C320.917 141.876 317.14 141.371 314.311 143.221C311.482 145.07 310.446 148.723 310.446 152.102C310.376 153.311 310.551 154.522 310.962 155.662C311.358 156.625 312.018 157.46 312.415 158.423C312.693 159.103 312.837 159.829 313.069 160.53C313.701 162.134 314.569 163.634 315.645 164.981L322.189 174.084C323.905 176.474 323.22 179.431 323.498 182.363C323.704 184.614 324.23 186.839 324.225 189.096C324.219 191.352 323.601 193.732 321.916 195.278C325.791 195.041 329.654 194.685 333.504 194.211C336.678 193.82 339.842 193.351 343.032 193.124C349.73 192.651 356.459 193.264 363.127 193.877C362.024 192.506 361.524 190.595 361.251 188.859C360.344 183.099 359.773 177.067 361.669 171.555C362.277 169.906 362.991 168.299 363.807 166.743L365.842 162.647C368.723 156.857 371.412 150.922 372.026 144.483C372.255 142.829 372.059 141.145 371.454 139.589C370.562 137.595 368.635 136.194 366.559 135.514C364.45 134.913 362.247 134.721 360.066 134.947C358.036 135.045 355.79 134.653 353.759 134.344Z" fill="#3F3D56"/>
<path d="M332.603 131.635C333.072 132.861 333.633 134.174 333.267 135.442C332.587 137.956 329.114 138.466 327.6 140.593C327.468 140.737 327.377 140.914 327.336 141.105C327.295 141.296 327.306 141.495 327.368 141.68C327.44 141.804 327.534 141.914 327.646 142.005C330.475 144.467 334.566 144.679 338.317 144.637C343.784 144.586 349.622 144.122 353.955 140.81C355.166 139.882 356.305 138.337 355.687 136.941C355.207 135.874 353.945 135.473 352.899 134.947C350.555 133.767 348.875 131.521 347.947 129.064C347.02 126.607 346.783 123.953 346.742 121.336C346.783 120.889 346.686 120.439 346.463 120.049C346.103 119.533 345.433 119.456 344.799 119.415C341.268 119.179 337.722 119.321 334.221 119.837C333.231 119.982 331.346 120.116 330.65 120.924C329.954 121.733 330.356 122.691 330.49 123.572C330.908 126.327 331.617 129.029 332.603 131.635Z" fill="#FBB3B2"/>
<path opacity="0.05" d="M332.603 131.635C333.072 132.861 333.633 134.174 333.267 135.442C332.587 137.956 329.114 138.466 327.6 140.593C327.468 140.737 327.377 140.914 327.336 141.105C327.295 141.296 327.306 141.495 327.368 141.68C327.44 141.804 327.534 141.914 327.646 142.005C330.475 144.467 334.566 144.679 338.317 144.637C343.784 144.586 349.622 144.122 353.955 140.81C355.166 139.882 356.305 138.337 355.687 136.941C355.207 135.874 353.945 135.473 352.899 134.947C350.555 133.767 348.875 131.521 347.947 129.064C347.02 126.607 346.783 123.953 346.742 121.336C346.783 120.889 346.686 120.439 346.463 120.049C346.103 119.533 345.433 119.456 344.799 119.415C341.268 119.179 337.722 119.321 334.221 119.837C333.231 119.982 331.346 120.116 330.65 120.924C329.954 121.733 330.356 122.691 330.49 123.572C330.908 126.327 331.617 129.029 332.603 131.635Z" fill="black"/>
<path d="M339.255 126.637C346.543 126.637 352.451 120.731 352.451 113.444C352.451 106.158 346.543 100.251 339.255 100.251C331.967 100.251 326.059 106.158 326.059 113.444C326.059 120.731 331.967 126.637 339.255 126.637Z" fill="#FBB3B2"/>
<path opacity="0.1" d="M351.837 385.857C350.793 386.316 349.794 386.871 348.854 387.516C350.018 388.25 351.342 388.69 352.714 388.798C354.086 388.906 355.463 388.678 356.727 388.134C357.727 387.666 358.623 387.001 359.582 386.46C356.944 385.636 354.352 384.92 351.837 385.857Z" fill="black"/>
<path opacity="0.1" d="M292.716 383.338C290.485 384.482 288.357 385.878 286.054 386.831C288.146 388.078 290.944 388.134 293.35 387.439C296.338 386.568 298.946 384.755 301.713 383.318C307.751 380.227 314.409 379.016 321.22 378.681C311.348 378.351 301.398 378.877 292.716 383.338Z" fill="black"/>
<path opacity="0.1" d="M418.487 347.416C412.669 343.295 411.103 335.052 407.548 328.87C405.203 324.78 402.833 320.627 401.689 316.058C400.865 312.761 400.7 309.33 399.886 306.028C398.762 301.474 396.439 297.327 394.594 293.015C387.277 275.932 387.519 256.438 380.821 239.103C378.93 234.219 376.503 229.547 374.828 224.586C372.628 218.053 371.737 211.129 369.537 204.608C367.337 198.086 363.354 191.682 357.042 188.874C354.347 187.669 351.374 187.2 348.426 187.004C345.94 186.84 343.444 186.883 340.965 187.133C343.408 187.337 345.803 187.929 348.061 188.885C354.357 191.692 358.33 198.096 360.556 204.618C362.782 211.14 363.647 218.064 365.847 224.596C367.522 229.557 369.97 234.229 371.835 239.113C378.533 256.448 378.291 275.942 385.608 293.025C387.458 297.337 389.781 301.484 390.905 306.038C391.719 309.34 391.884 312.771 392.708 316.068C393.852 320.638 396.222 324.79 398.567 328.88C402.117 335.062 403.688 343.274 409.506 347.426C417.415 353.059 424.335 359.963 429.987 367.858L408.862 379.789C407.095 380.847 405.242 381.753 403.323 382.499C404.817 383.008 406.381 383.288 407.96 383.328C411.51 383.328 414.787 381.535 417.879 379.789L439.005 367.858C433.344 359.955 426.41 353.048 418.487 347.416Z" fill="black"/>
<path opacity="0.1" d="M385.093 380.263C379.646 380.458 375.251 385.028 370.253 386.96C371.768 387.472 373.349 387.765 374.947 387.83C380.543 387.83 385.026 383.096 390.183 381.102C388.547 380.533 386.825 380.249 385.093 380.263Z" fill="black"/>
<path d="M338.456 188.941V179.21H333.731C333.984 177.752 334.829 172.657 334.659 170.612C334.659 170.612 336.859 164.615 335.061 159.618C335.301 159.676 335.551 159.679 335.792 159.626C336.033 159.572 336.259 159.464 336.452 159.31C336.645 159.156 336.8 158.96 336.905 158.736C337.011 158.513 337.064 158.268 337.06 158.021C337.256 156.022 340.059 151.025 334.659 149.624L334.107 148.079C334.48 147.457 334.671 146.743 334.659 146.018C334.659 144.364 333.762 143.02 332.659 143.02C331.557 143.02 330.66 144.364 330.66 146.018C330.641 146.817 330.875 147.601 331.33 148.259L331.057 150.041C331.057 150.041 325.461 148.64 327.862 158.037C327.862 158.037 328.46 159.634 329.46 159.634C329.46 159.634 328.862 166.846 329.862 169.422C329.862 169.422 329.46 175.815 330.258 177.216V179.215H325.26V189.111C322.684 189.699 321.061 190.6 321.061 191.61C321.061 193.377 326.074 194.809 332.257 194.809C338.441 194.809 343.454 193.377 343.454 191.61C343.454 190.492 341.47 189.513 338.456 188.941Z" fill="#6C63FF"/>
<path opacity="0.1" d="M332.757 145.92C332.771 146.644 332.582 147.358 332.211 147.981L332.757 149.526C338.157 150.922 335.359 155.919 335.158 157.918C335.162 158.165 335.109 158.41 335.004 158.633C334.898 158.857 334.743 159.053 334.551 159.208C334.358 159.363 334.132 159.471 333.891 159.525C333.65 159.579 333.4 159.578 333.159 159.52C334.957 164.517 332.757 170.514 332.757 170.514C332.927 172.575 332.082 177.649 331.83 179.112H333.633C333.886 177.649 334.736 172.559 334.566 170.514C334.566 170.514 336.761 164.517 334.963 159.52C335.203 159.578 335.453 159.579 335.694 159.525C335.936 159.471 336.161 159.363 336.354 159.208C336.547 159.053 336.702 158.857 336.807 158.633C336.913 158.41 336.965 158.165 336.962 157.918C337.163 155.919 339.961 150.922 334.566 149.526L334.015 147.981C334.387 147.359 334.578 146.645 334.566 145.92C334.566 144.266 333.669 142.922 332.567 142.922C332.238 142.927 331.921 143.041 331.665 143.246C332.033 143.584 332.322 143.999 332.511 144.461C332.7 144.923 332.784 145.421 332.757 145.92Z" fill="black"/>
<path opacity="0.1" d="M338.358 188.838V179.112H336.56V188.838C339.569 189.415 341.558 190.384 341.558 191.502C341.558 193.186 337.024 194.562 331.253 194.691H332.154C338.338 194.691 343.351 193.258 343.351 191.491C343.356 190.394 341.362 189.415 338.358 188.838Z" fill="black"/>
<path d="M343.701 94.9188C339.579 93.8885 335.148 93.1003 331.222 94.6819C329.419 95.4802 327.762 96.5717 326.316 97.9119C324.982 99.0711 323.683 100.354 322.972 101.977C322.122 103.934 322.22 106.149 322.169 108.282C322.117 110.415 321.834 112.702 320.417 114.294C319.865 114.912 319.149 115.417 318.794 116.169C318.278 117.2 318.618 118.472 319.123 119.518C319.628 120.564 320.303 121.553 320.535 122.696C320.849 124.278 320.236 125.916 319.366 127.276C318.495 128.636 317.361 129.811 316.459 131.155C315.558 132.5 314.857 134.427 315.676 135.905C316.192 136.858 317.253 137.451 317.789 138.388C318.046 138.837 318.175 139.357 318.448 139.795C319.206 140.995 320.798 141.289 322.205 141.433C324.456 141.67 326.966 141.742 328.712 140.3C329.913 139.31 330.521 137.77 330.815 136.24C331.108 134.71 331.119 133.149 331.392 131.604C331.588 130.501 331.907 129.399 331.814 128.286C331.685 126.802 330.825 125.499 330.15 124.165C329.133 122.312 328.658 120.211 328.779 118.101C328.98 116.01 330.083 113.944 331.928 112.95C333.226 112.233 334.829 112.053 335.931 111.064C337.678 109.519 337.415 106.778 337.73 104.465C337.771 103.949 337.939 103.452 338.219 103.017C338.765 102.275 339.765 102.074 340.692 101.987C342.851 101.801 345.144 102.033 346.953 103.234C348.629 104.423 349.789 106.206 350.199 108.22C350.596 110.223 350.559 112.287 350.091 114.274C350.163 113.403 351.503 113.166 352.121 113.758C352.739 114.351 352.77 115.371 352.595 116.226C351.874 119.832 348.607 122.408 347.509 125.911C347.074 127.355 347.019 128.886 347.349 130.357C347.68 131.828 348.384 133.189 349.395 134.308C349.667 134.64 350.023 134.893 350.426 135.04C350.838 135.12 351.26 135.141 351.678 135.102C353.321 135.102 354.733 136.23 355.985 137.301C357.237 138.373 358.562 139.522 360.231 139.65C361.901 139.779 363.699 138.275 363.204 136.704C363.025 136.235 362.737 135.814 362.364 135.478C361.334 134.416 359.984 133.582 359.273 132.284C358.031 130.104 358.788 127.379 359.572 124.994C360.355 122.609 361.117 119.879 359.845 117.71C359.247 116.679 358.247 115.907 357.784 114.814C357.528 114.182 357.393 113.508 357.387 112.826C357.279 110.333 357.902 107.793 357.387 105.361C357.08 104.189 356.542 103.089 355.805 102.127C355.068 101.164 354.147 100.358 353.095 99.7562C352.026 99.1064 350.866 98.6218 349.653 98.3189C349.184 98.2004 348.473 98.2262 348.143 97.8759C347.813 97.5256 347.7 96.9022 347.283 96.5107C346.273 95.6452 344.933 95.2228 343.701 94.9188Z" fill="#FBC661"/>
<path opacity="0.05" d="M352.121 110.987C351.897 110.792 351.617 110.674 351.321 110.65C351.025 110.626 350.73 110.697 350.477 110.853C350.464 111.947 350.345 113.037 350.122 114.109C350.348 113.382 351.544 113.217 352.121 113.784C352.236 113.899 352.335 114.029 352.415 114.17C352.487 113.935 352.548 113.696 352.595 113.454C352.77 112.599 352.744 111.6 352.121 110.987Z" fill="black"/>
<path opacity="0.05" d="M357.335 110.054C357.34 110.259 357.356 110.464 357.382 110.667C357.532 109.259 357.565 107.841 357.48 106.428C357.365 107.633 357.316 108.844 357.335 110.054Z" fill="black"/>
<path opacity="0.05" d="M350.122 114.109C350.106 114.164 350.096 114.221 350.091 114.279L350.122 114.109Z" fill="black"/>
<path opacity="0.05" d="M358.711 128.126C358.91 127.077 359.186 126.044 359.536 125.035C360.159 123.15 360.757 121.043 360.35 119.168C360.159 120.218 359.887 121.251 359.536 122.259C358.912 124.123 358.304 126.241 358.711 128.126Z" fill="black"/>
<path opacity="0.05" d="M350.199 108.226C350.29 108.628 350.359 109.036 350.405 109.446C350.553 108.105 350.484 106.748 350.199 105.428C349.791 103.412 348.63 101.627 346.953 100.436C345.144 99.2411 342.831 99.0041 340.692 99.1896C339.775 99.272 338.765 99.4729 338.219 100.22C337.939 100.653 337.771 101.149 337.73 101.662C337.415 103.981 337.678 106.706 335.931 108.262C334.829 109.256 333.226 109.436 331.928 110.152C330.083 111.183 328.98 113.243 328.779 115.304C328.714 116.048 328.742 116.797 328.862 117.535C329.002 116.585 329.353 115.68 329.888 114.883C330.422 114.086 331.128 113.419 331.953 112.929C333.252 112.213 334.854 112.033 335.957 111.043C337.704 109.498 337.441 106.757 337.755 104.444C337.797 103.929 337.965 103.432 338.245 102.997C338.791 102.255 339.791 102.054 340.718 101.966C342.877 101.781 345.17 102.013 346.979 103.213C348.65 104.414 349.802 106.206 350.199 108.226Z" fill="black"/>
<path opacity="0.05" d="M362.684 135.864C362.375 136.207 361.994 136.477 361.568 136.655C361.142 136.833 360.682 136.915 360.221 136.894C358.577 136.766 357.222 135.617 355.975 134.545C354.728 133.474 353.311 132.366 351.667 132.345C351.249 132.382 350.828 132.361 350.415 132.284C350.013 132.135 349.658 131.883 349.385 131.552C348.242 130.3 347.493 128.74 347.231 127.065C347.02 128.363 347.104 129.692 347.477 130.953C347.85 132.214 348.502 133.375 349.385 134.349C349.656 134.682 350.012 134.934 350.415 135.081C350.828 135.161 351.249 135.182 351.667 135.143C353.311 135.143 354.723 136.271 355.975 137.343C357.227 138.414 358.551 139.563 360.221 139.692C361.89 139.821 363.689 138.316 363.194 136.745C363.085 136.42 362.911 136.12 362.684 135.864Z" fill="black"/>
<path opacity="0.05" d="M320.412 122.222C320.635 121.469 320.678 120.672 320.535 119.899C320.303 118.761 319.623 117.771 319.123 116.726C319.02 116.513 318.928 116.296 318.845 116.077C318.845 116.108 318.809 116.138 318.794 116.174C318.278 117.205 318.618 118.477 319.123 119.523C319.615 120.392 320.045 121.294 320.412 122.222Z" fill="black"/>
<path opacity="0.05" d="M331.665 127.446C331.577 127.905 331.474 128.358 331.392 128.817C331.119 130.362 331.103 131.908 330.815 133.453C330.526 134.999 329.913 136.544 328.712 137.513C326.966 138.95 324.456 138.883 322.205 138.646C320.798 138.502 319.206 138.203 318.448 137.008C318.175 136.565 318.046 136.049 317.789 135.596C317.274 134.648 316.207 134.051 315.676 133.113C315.64 133.051 315.609 132.979 315.578 132.912C315.382 133.391 315.289 133.907 315.306 134.424C315.322 134.942 315.449 135.45 315.676 135.916C316.192 136.869 317.253 137.461 317.789 138.399C318.046 138.847 318.175 139.367 318.448 139.805C319.206 141.005 320.798 141.299 322.205 141.443C324.456 141.68 326.966 141.752 328.712 140.31C329.913 139.321 330.521 137.78 330.815 136.25C331.108 134.72 331.119 133.159 331.392 131.614C331.588 130.512 331.907 129.409 331.814 128.296C331.788 128.009 331.738 127.725 331.665 127.446Z" fill="black"/>
<path d="M312.466 147.022C312.466 147.022 309.89 148.424 308.267 161.416C306.644 174.409 305.866 188.205 305.866 188.205C305.866 188.205 305.866 199.801 316.861 200.198C316.861 200.198 321.262 201.001 322.663 202.001C324.065 203 346.056 196.2 335.658 194.788C325.26 193.377 321.463 193.985 321.463 193.985C321.463 193.985 315.862 190.379 315.862 186.989C315.862 183.599 321.463 163.436 321.463 163.436L312.466 147.022Z" fill="#FBB3B2"/>
<path d="M312.425 157.212C312.703 157.892 312.848 158.619 313.079 159.319C313.71 160.924 314.578 162.425 315.656 163.77C316.964 165.594 319.067 169.891 320.37 171.714C321.151 169.038 322.295 166.481 323.771 164.116L312.477 145.827C312.477 145.827 311.59 146.301 310.534 149.279C310.477 149.82 310.446 150.361 310.441 150.891C310.37 152.101 310.546 153.312 310.956 154.451C311.369 155.414 312.028 156.249 312.425 157.212Z" fill="#3F3D56"/>
<path d="M351.152 120.162C351.152 120.039 351.114 119.919 351.043 119.818C350.972 119.718 350.871 119.642 350.755 119.6V118.925C350.872 118.885 350.972 118.809 351.044 118.708C351.115 118.607 351.153 118.487 351.152 118.364C351.154 118.253 351.125 118.144 351.068 118.048C351.011 117.952 350.929 117.874 350.831 117.822C350.733 117.771 350.622 117.747 350.511 117.754C350.4 117.761 350.293 117.798 350.203 117.862C350.112 117.926 350.04 118.014 349.996 118.116C349.952 118.218 349.937 118.33 349.953 118.44C349.968 118.55 350.014 118.654 350.085 118.739C350.155 118.825 350.248 118.889 350.354 118.925V119.6C350.237 119.641 350.135 119.717 350.063 119.819C349.992 119.92 349.953 120.041 349.953 120.164C349.953 120.288 349.992 120.409 350.063 120.51C350.135 120.611 350.237 120.688 350.354 120.729V121.398C350.237 121.439 350.135 121.515 350.063 121.616C349.992 121.718 349.953 121.838 349.953 121.962C349.953 122.086 349.992 122.207 350.063 122.308C350.135 122.409 350.237 122.486 350.354 122.526V123.201C350.221 123.249 350.109 123.341 350.038 123.463C349.967 123.585 349.942 123.727 349.966 123.866C349.99 124.005 350.062 124.131 350.17 124.221C350.277 124.312 350.414 124.362 350.554 124.362C350.695 124.362 350.832 124.312 350.939 124.221C351.047 124.131 351.119 124.005 351.143 123.866C351.167 123.727 351.142 123.585 351.071 123.463C351 123.341 350.888 123.249 350.755 123.201V122.526C350.872 122.486 350.974 122.409 351.046 122.308C351.117 122.207 351.156 122.086 351.156 121.962C351.156 121.838 351.117 121.718 351.046 121.616C350.974 121.515 350.872 121.439 350.755 121.398V120.729C350.872 120.687 350.973 120.61 351.044 120.508C351.115 120.407 351.153 120.286 351.152 120.162Z" fill="#EEEFF3"/>
<path d="M370.449 139.027C373.522 144.169 375.749 149.772 377.044 155.621C379.043 165.017 380.445 167.016 380.445 167.016C380.445 167.016 389.246 189.405 379.445 190.806C369.645 192.207 352.456 190.806 352.456 190.806C352.456 190.806 317.665 196.803 329.861 188.807C342.058 180.812 351.667 181.806 351.667 181.806C351.667 181.806 366.265 181.41 368.264 180.008L372.062 179.612L363.065 154.024L370.449 139.027Z" fill="#FBB3B2"/>
<path d="M361.153 153.72L365.348 163.508C368.182 157.795 371.443 150.793 372.046 144.447C372.103 143.272 372.077 142.094 371.969 140.923C371.509 139.967 370.902 139.09 370.171 138.321L361.153 153.72Z" fill="#3F3D56"/>
<path d="M224.124 266.468C224.124 266.468 214.01 287.518 221.033 294.947C228.056 302.375 232.801 265.644 232.801 265.644L224.124 266.468Z" fill="#A0616A"/>
<path d="M175.2 364.906L163.864 379.145C163.864 379.145 140.95 388.227 162.004 389.448C162.004 389.448 172.309 388.624 174.37 387.176C176.431 385.729 177.673 382.844 181.801 384.497C185.928 386.151 190.679 382.844 190.679 382.844C190.679 382.844 191.297 366.745 187.17 364.89C183.042 363.036 175.2 364.906 175.2 364.906Z" fill="#36344A"/>
<path d="M217.519 370.063L214.834 381.829C214.834 381.829 208.847 395.862 217.519 393.796C226.19 391.73 230.524 389.464 231.348 385.337C232.173 381.211 234.44 376.667 234.44 376.667C234.44 376.667 231.961 370.269 229.694 370.063C227.427 369.856 217.519 370.063 217.519 370.063Z" fill="#36344A"/>
<path d="M162.195 227.862C162.195 227.862 154.765 278.863 159.928 306.682C165.09 334.501 171.263 363.025 171.263 363.025C171.263 363.025 164.05 379.511 188.782 368.599C188.782 368.599 187.133 327.732 182.177 311.844C177.22 295.956 184.722 274.505 186.783 273.887C186.783 273.887 195.027 315.373 203.091 329.009C211.155 342.646 215.638 374.4 215.638 374.4C215.638 374.4 232.982 376.667 232.776 372.128C232.569 367.59 229.473 329.2 219.379 315.579C219.379 315.579 210.707 292.876 216.287 269.348C221.867 245.821 210.3 237.769 210.3 237.769L191.936 216.101L173.567 211.979L162.195 227.862Z" fill="#3F3D56"/>
<path d="M216.668 139.996C216.475 140.667 216.162 141.299 215.746 141.861C215.315 142.323 214.806 142.705 214.241 142.989C212.428 144.012 210.508 144.836 208.517 145.446C208.002 146.476 208.836 147.636 209.63 148.47L211.959 150.933C213.319 152.365 214.679 153.797 216.148 155.116C218.987 157.663 222.209 159.749 225.696 161.298C227.52 162.106 229.875 162.683 231.338 161.329C232.801 159.974 232.435 157.594 233.322 155.827C233.434 155.721 233.519 155.592 233.573 155.447C233.626 155.303 233.645 155.149 233.629 154.996C233.612 154.843 233.561 154.697 233.478 154.567C233.395 154.438 233.283 154.329 233.152 154.25C231.956 153.071 231.714 151.206 231.967 149.547C232.219 147.888 232.894 146.322 233.28 144.689C233.667 143.056 233.739 141.232 232.868 139.795C232.356 139.03 231.693 138.378 230.921 137.878C229.229 136.678 227.343 135.779 225.345 135.22C224.315 134.937 223.284 134.746 222.254 134.442C221.615 134.246 219.884 133.051 219.337 133.149C218.214 133.335 217.065 138.795 216.668 139.996Z" fill="#A0616A"/>
<path opacity="0.1" d="M216.668 139.996C216.475 140.667 216.162 141.299 215.746 141.861C215.315 142.323 214.806 142.705 214.241 142.989C212.428 144.012 210.508 144.836 208.517 145.446C208.002 146.476 208.836 147.636 209.63 148.47L211.959 150.933C213.319 152.365 214.679 153.797 216.148 155.116C218.987 157.663 222.209 159.749 225.696 161.298C227.52 162.106 229.875 162.683 231.338 161.329C232.801 159.974 232.435 157.594 233.322 155.827C233.434 155.721 233.519 155.592 233.573 155.447C233.626 155.303 233.645 155.149 233.629 154.996C233.612 154.843 233.561 154.697 233.478 154.567C233.395 154.438 233.283 154.329 233.152 154.25C231.956 153.071 231.714 151.206 231.967 149.547C232.219 147.888 232.894 146.322 233.28 144.689C233.667 143.056 233.739 141.232 232.868 139.795C232.356 139.03 231.693 138.378 230.921 137.878C229.229 136.678 227.343 135.779 225.345 135.22C224.315 134.937 223.284 134.746 222.254 134.442C221.615 134.246 219.884 133.051 219.337 133.149C218.214 133.335 217.065 138.795 216.668 139.996Z" fill="black"/>
<path d="M214.355 143.7C214.329 143.293 214.283 142.819 213.937 142.597C213.736 142.487 213.507 142.438 213.278 142.458C208.404 142.458 204.451 146.291 201.386 150.072C194.924 158.032 189.828 167.016 185.412 176.273C182.697 181.976 180.177 188.39 181.924 194.464C182.476 196.265 183.298 197.972 184.361 199.528C185.826 201.751 187.603 203.751 189.638 205.468C190.401 206.202 191.348 206.718 192.379 206.962C193.925 207.209 195.393 206.359 196.712 205.54C199.361 203.891 201.997 202.226 204.621 200.543C208.883 197.812 213.144 195.036 216.9 191.646C220.656 188.256 223.918 184.207 225.768 179.498C226.556 177.5 227.082 175.377 227.968 173.44C229.318 170.457 231.498 167.825 232.271 164.641C232.636 163.121 232.667 161.55 233.059 160.03C233.368 158.82 233.904 157.676 234.162 156.455C234.419 155.234 234.357 153.879 233.579 152.88C232.271 151.221 229.725 151.468 227.654 151.896C224.954 152.452 220.141 153.823 217.57 152.19C215.37 150.783 214.509 146.09 214.355 143.7Z" fill="#EEEFF3"/>
<path d="M212.979 153.565L210.088 153.771L208.027 152.942L209.681 147.991C209.681 147.991 215.504 148.65 216.102 150.484C216.102 150.484 216.534 151.747 217.235 151.932C217.936 152.117 220.842 151.705 221.445 153.148C222.048 154.59 221.857 162.421 217.936 161.39L216.081 156.435L215.251 155.198C215.251 155.198 212.773 154.801 212.979 153.565Z" fill="#3F3D56"/>
<path d="M189.236 199.59C189.236 199.59 195.635 157.485 215.658 142.407C215.658 142.407 215.865 138.486 212.356 138.898C208.847 139.31 194.193 136.42 194.193 136.42L180.363 163.255C180.363 163.255 177.271 188.225 174.994 192.352C172.716 196.478 158.48 229.299 158.48 229.299C158.48 229.299 166.533 256.335 178.503 220.026C178.503 220.026 169.228 249.54 195.429 252.43C221.63 255.32 218.549 250.776 218.549 250.776L221.641 229.315V213.211L227.422 201.877L250.954 171.951C250.954 171.951 234.981 149.84 231.93 151.813C231.936 151.793 212.149 183.079 189.236 199.59Z" fill="#3F3D56"/>
<path d="M197.289 138.084L194.198 136.431C194.198 136.431 184.701 139.939 181.399 153.565C181.399 153.565 173.35 159.34 168.002 163.678C168.002 163.678 160.788 150.283 160.788 145.719C160.788 145.719 148.813 153.771 146.129 151.705C146.129 151.705 153.342 184.933 166.982 182.455C180.621 179.978 185.753 171.931 185.753 171.931L197.289 138.084Z" fill="#3F3D56"/>
<path d="M243.117 173.172L250.959 171.931C250.959 171.931 255.916 178.535 247.038 188.236L241.669 221.051C241.669 221.051 242.287 231.988 240.432 240.246C238.577 248.505 235.682 273.887 235.682 273.887C235.682 273.887 226.19 270.378 221.027 270.997L228.87 194.861L243.117 173.172Z" fill="#3F3D56"/>
<path d="M160.34 147.981C160.34 147.981 156.001 121.975 148.571 131.676C141.141 141.376 149.396 154.791 149.396 154.791L160.34 147.981Z" fill="#A0616A"/>
<path d="M232.487 149.336C241.721 149.336 249.207 141.851 249.207 132.619C249.207 123.386 241.721 115.901 232.487 115.901C223.253 115.901 215.767 123.386 215.767 132.619C215.767 141.851 223.253 149.336 232.487 149.336Z" fill="#A0616A"/>
<path d="M245.853 114.583C245.471 114.107 245.126 113.602 244.822 113.073C243.818 111.6 242.246 110.636 240.7 109.771C237.871 108.226 234.646 106.773 231.498 107.525C229.318 108.04 227.468 109.586 225.273 110.029C223.078 110.472 220.471 109.982 218.992 111.631C217.513 113.279 218.168 115.876 216.895 117.581C216.189 118.524 214.88 119.389 215.236 120.512C215.385 120.986 215.823 121.321 216.024 121.779C216.38 122.583 215.942 123.505 215.921 124.386C215.895 125.69 216.787 126.807 217.415 127.951C218.044 129.095 218.384 130.692 217.415 131.588C220.694 128.966 224.288 126.763 228.112 125.03C228.107 125.559 227.968 126.078 227.71 126.54C229.781 126.235 231.831 125.799 233.847 125.236L232.786 127.271L237.341 125.283C238.572 124.742 240.118 124.252 241.169 125.077C241.653 125.538 241.993 126.131 242.148 126.782C242.749 128.643 243.105 130.573 243.21 132.526C243.323 134.731 243.21 137.162 244.637 138.847C245.041 139.274 245.529 139.613 246.07 139.843C246.611 140.074 247.193 140.191 247.781 140.187C248.369 140.183 248.95 140.058 249.488 139.821C250.026 139.583 250.509 139.238 250.908 138.806C251.309 137.26 250.707 135.663 250.676 134.076C250.629 131.763 251.794 129.589 252.005 127.287C252.278 124.376 250.557 122.65 249.774 120.074C249.47 119.085 249.655 117.916 249.073 116.983C248.321 115.829 246.785 115.572 245.853 114.583Z" fill="#3F3D56"/>
<path d="M148.679 161.73L154.641 151.721L149.777 148.826C150.931 147.476 154.929 142.757 155.996 140.552C155.996 140.552 161.932 135.73 163.143 129.486C163.143 129.486 164.75 131.001 166.183 129.064C167.615 127.127 173.551 123.706 168.857 118.962L169.233 117.04C169.998 116.629 170.632 116.011 171.062 115.258C172.093 113.552 171.974 111.651 170.841 110.951C169.707 110.25 167.96 111.105 166.945 112.811C166.439 113.62 166.201 114.568 166.265 115.52L164.91 117.169C164.91 117.169 160.005 112.3 156.717 123.433C156.717 123.433 156.357 125.447 157.387 126.061C157.387 126.061 152.358 133.092 151.797 136.364C151.797 136.364 147.468 142.7 147.432 144.606L146.206 146.667L141.053 143.607L134.994 153.792C132 152.828 129.764 152.761 129.146 153.792C128.064 155.61 132.34 160.154 138.704 163.94C145.067 167.727 151.096 169.319 152.178 167.505C152.874 166.387 151.426 164.162 148.679 161.73Z" fill="#6C63FF"/>
<path opacity="0.1" d="M169.166 113.98C168.736 114.733 168.104 115.352 167.342 115.768L166.961 117.684C171.66 122.429 165.719 125.854 164.287 127.791C164.139 128.048 163.935 128.267 163.69 128.432C163.444 128.597 163.165 128.704 162.872 128.744C162.579 128.784 162.28 128.757 162 128.664C161.719 128.571 161.463 128.416 161.252 128.209C160.041 134.452 154.105 139.274 154.105 139.274C153.028 141.484 149.04 146.203 147.886 147.548L149.736 148.65C150.89 147.306 154.888 142.582 155.955 140.377C155.955 140.377 161.891 135.555 163.102 129.311C163.102 129.311 164.709 130.826 166.142 128.889C167.574 126.952 173.51 123.531 168.816 118.786L169.192 116.865C169.955 116.453 170.587 115.835 171.016 115.082C172.047 113.382 171.933 111.476 170.8 110.776C170.459 110.581 170.065 110.503 169.676 110.554C169.85 111.127 169.894 111.732 169.806 112.324C169.718 112.917 169.499 113.482 169.166 113.98Z" fill="black"/>
<path opacity="0.1" d="M148.654 161.566L154.615 151.556L152.776 150.453L146.814 160.463C149.56 162.9 151.003 165.1 150.323 166.264C149.292 167.99 143.784 166.63 137.776 163.24C138.08 163.425 138.384 163.616 138.699 163.801C145.057 167.588 151.091 169.185 152.173 167.366C152.827 166.223 151.384 163.997 148.654 161.566Z" fill="black"/>
</g>
<defs>
<clipPath id="clip0">
<rect width="557" height="433" fill="white"/>
</clipPath>
</defs>
</svg>
