<svg width="565" height="376" viewBox="0 0 565 376" fill="none" xmlns="http://www.w3.org/2000/svg">
<path d="M69.0315 331.209C69.0315 343.577 61.6817 347.895 52.6159 347.895C52.4048 347.895 52.1949 347.893 51.9861 347.887C51.5663 347.878 51.1498 347.86 50.7391 347.83C42.5564 347.252 36.1992 342.71 36.1992 331.209C36.1992 319.307 51.4008 304.288 52.5475 303.173L52.5497 303.172C52.5931 303.129 52.6159 303.107 52.6159 303.107C52.6159 303.107 69.0315 318.84 69.0315 331.209Z" fill="#3F3D56"/>
<path d="M52.0169 346.003L58.0216 337.611L52.0021 346.924L51.9861 347.887C51.5662 347.878 51.1498 347.86 50.7391 347.83L51.386 335.457L51.3814 335.361L51.3928 335.343L51.4533 334.174L45.4189 324.837L51.4715 333.298L51.4864 333.545L51.9758 324.197L46.8098 314.549L52.0386 322.554L52.5475 303.173L52.5497 303.107V303.172L52.4653 318.456L57.6074 312.396L52.4436 319.772L52.3078 328.142L57.11 320.109L52.2873 329.375L52.212 334.028L59.183 322.846L52.1858 335.652L52.0169 346.003Z" fill="#F2F2F2"/>
<path d="M277.598 259.695C273.212 243.768 248.859 232.03 229.857 229V221.349C230.208 221.219 230.557 221.084 230.905 220.945C230.805 219.416 230.498 217.908 229.992 216.462C238.109 213.161 245.118 207.615 250.198 200.474C255.546 194.876 259.576 188.153 261.993 180.797C264.411 173.441 265.155 165.637 264.172 157.957C263.189 150.276 260.502 142.912 256.31 136.403C252.117 129.894 246.523 124.404 239.938 120.335C241.744 119.196 243.147 117.518 243.949 115.538C244.751 113.559 244.912 111.377 244.408 109.302C243.904 107.226 242.762 105.361 241.142 103.969C239.522 102.578 237.506 101.73 235.379 101.546C237.116 97.4437 237.427 92.8772 236.262 88.5771C235.098 84.277 232.525 80.4919 228.956 77.8275C225.387 75.1631 221.027 73.7733 216.575 73.8806C212.123 73.9878 207.835 75.5858 204.398 78.419C207.43 76.8052 210.828 76.004 214.261 76.0934C217.694 76.1828 221.046 77.1598 223.99 78.9292C226.933 80.6987 229.369 83.2003 231.06 86.1907C232.75 89.1811 233.639 92.5584 233.638 95.9939C233.638 96.1686 233.627 96.3408 233.623 96.5144C233.536 93.6328 232.824 90.8046 231.537 88.2252C230.25 85.6458 228.418 83.3769 226.168 81.5754C223.919 79.7739 221.304 78.4828 218.507 77.7914C215.709 77.1 212.794 77.0248 209.965 77.5711C207.135 78.1173 204.458 79.272 202.118 80.9551C199.779 82.6382 197.832 84.8097 196.414 87.3193C194.996 89.8289 194.139 92.6168 193.904 95.49C193.669 98.3633 194.06 101.253 195.052 103.96C193.532 104.289 192.11 104.97 190.9 105.947C189.691 106.925 188.727 108.173 188.087 109.59C187.447 111.008 187.148 112.556 187.213 114.11C187.279 115.664 187.708 117.181 188.466 118.539C181.266 122.324 175.054 127.747 170.331 134.371C165.607 140.996 162.504 148.637 161.272 156.68C160.039 164.723 160.711 172.943 163.233 180.679C165.755 188.415 170.057 195.45 175.794 201.22C180.627 207.734 187.091 212.859 194.536 216.077V228.829C175.332 231.573 150.044 243.53 145.625 259.849C141.774 274.07 137.664 289.687 135.619 298.857C153.149 311.179 189.932 318.414 212.984 318.414C234.887 318.414 270.685 311.884 287.699 300.664C285.856 290.588 281.616 274.285 277.598 259.695ZM242.482 112.583C242.482 112.765 242.474 112.944 242.465 113.123C242.336 110.874 241.449 108.735 239.948 107.056C238.448 105.377 236.422 104.256 234.202 103.878C234.395 103.552 234.579 103.219 234.753 102.882C236.949 103.385 238.909 104.619 240.313 106.381C241.717 108.143 242.481 110.33 242.482 112.583Z" fill="url(#paint0_linear)"/>
<path d="M212.946 314.931C234.225 314.931 269.004 308.587 285.533 297.687C283.742 287.898 279.623 272.059 275.719 257.884C270.748 239.832 239.37 227.317 220.652 227.317H202.614C183.838 227.317 152.415 239.904 147.506 258.034C143.765 271.85 139.772 287.023 137.785 295.931C154.815 307.902 190.551 314.931 212.946 314.931Z" fill="#6C63FF"/>
<path d="M212.604 215.962C240.484 215.962 263.085 193.353 263.085 165.463C263.085 137.573 240.484 114.963 212.604 114.963C184.725 114.963 162.124 137.573 162.124 165.463C162.124 193.353 184.725 215.962 212.604 215.962Z" fill="#FBC661"/>
<path d="M198.975 200.565H225.387C226.435 200.565 227.44 200.981 228.181 201.722C228.922 202.464 229.338 203.469 229.338 204.518V231.533C229.338 233.665 228.919 235.776 228.103 237.745C227.288 239.714 226.093 241.504 224.586 243.011C223.079 244.518 221.29 245.714 219.322 246.53C217.353 247.345 215.243 247.765 213.112 247.765H211.249C209.118 247.765 207.008 247.345 205.04 246.53C203.071 245.714 201.282 244.518 199.776 243.011C198.269 241.504 197.074 239.714 196.258 237.745C195.443 235.776 195.023 233.665 195.023 231.533V204.518C195.023 203.999 195.125 203.485 195.324 203.005C195.523 202.525 195.814 202.09 196.181 201.722C196.548 201.355 196.983 201.064 197.463 200.865C197.942 200.667 198.456 200.565 198.975 200.565Z" fill="#FDA57D"/>
<path opacity="0.05" d="M213.766 223.437C219.45 223.44 225.081 222.354 230.356 220.239C230.086 216.071 228.241 212.162 225.195 209.305C222.15 206.448 218.132 204.857 213.956 204.855H212.55C208.444 204.856 204.487 206.393 201.456 209.164C198.426 211.935 196.54 215.739 196.171 219.83C201.73 222.216 207.717 223.443 213.766 223.437Z" fill="black"/>
<path d="M212.694 219.146C237.359 219.146 257.354 199.143 257.354 174.469C257.354 149.795 237.359 129.792 212.694 129.792C188.028 129.792 168.033 149.795 168.033 174.469C168.033 199.143 188.028 219.146 212.694 219.146Z" fill="#FDA57D"/>
<path d="M197.567 125.708C202.906 125.708 207.234 121.379 207.234 116.038C207.234 110.697 202.906 106.368 197.567 106.368C192.229 106.368 187.901 110.697 187.901 116.038C187.901 121.379 192.229 125.708 197.567 125.708Z" fill="#FBC661"/>
<path d="M231.937 125.708C237.276 125.708 241.604 121.379 241.604 116.038C241.604 110.697 237.276 106.368 231.937 106.368C226.599 106.368 222.271 110.697 222.271 116.038C222.271 121.379 226.599 125.708 231.937 125.708Z" fill="#FBC661"/>
<path d="M213.678 119.261C224.356 119.261 233.011 110.602 233.011 99.921C233.011 89.2398 224.356 80.5809 213.678 80.5809C203.001 80.5809 194.345 89.2398 194.345 99.921C194.345 110.602 203.001 119.261 213.678 119.261Z" fill="#FBC661"/>
<path d="M234.085 104.219C232.163 104.216 230.284 104.789 228.691 105.864C230.909 105.072 233.339 105.116 235.526 105.99C237.713 106.865 239.506 108.507 240.567 110.611C241.628 112.714 241.885 115.132 241.29 117.411C240.694 119.691 239.286 121.674 237.332 122.988C239.478 122.224 241.284 120.726 242.433 118.758C243.582 116.791 243.999 114.481 243.611 112.236C243.222 109.991 242.054 107.955 240.311 106.488C238.568 105.021 236.363 104.218 234.085 104.219Z" fill="#FBC661"/>
<path d="M216.9 77.3575C212.413 77.3507 208.064 78.9122 204.605 81.7723C208.836 79.522 213.752 78.9239 218.399 80.0941C223.046 81.2644 227.093 84.1194 229.755 88.1056C232.416 92.0917 233.503 96.9248 232.805 101.667C232.106 106.41 229.672 110.724 225.974 113.772C229.783 111.747 232.806 108.506 234.561 104.564C236.316 100.622 236.703 96.2058 235.66 92.0185C234.616 87.8313 232.203 84.1134 228.804 81.4567C225.404 78.7999 221.214 77.357 216.9 77.3575Z" fill="#FBC661"/>
<path d="M180.382 134.304C180.382 134.304 185.753 169.761 253.418 150.42L220.123 121.41L180.382 134.304Z" fill="#FBC661"/>
<path d="M66.781 337.36H38.9775C33.807 337.36 29.6155 341.553 29.6155 346.725V347.801C29.6155 352.973 33.807 357.166 38.9775 357.166H66.781C71.9515 357.166 76.1431 352.973 76.1431 347.801V346.725C76.1431 341.553 71.9515 337.36 66.781 337.36Z" fill="#6C63FF"/>
<g opacity="0.7">
<path opacity="0.7" d="M389.7 324.708V317.571H354.029V350.579C354.029 352.424 354.762 354.194 356.066 355.499C357.371 356.804 359.14 357.537 360.985 357.537H382.744C384.589 357.537 386.358 356.804 387.663 355.499C388.967 354.194 389.7 352.424 389.7 350.579V343.264C392.16 343.264 394.519 342.286 396.258 340.546C397.997 338.806 398.974 336.446 398.974 333.986C398.974 331.525 397.997 329.165 396.258 327.425C394.519 325.685 392.16 324.708 389.7 324.708ZM389.7 339.695V328.276C391.213 328.278 392.663 328.88 393.732 329.951C394.801 331.021 395.401 332.472 395.401 333.986C395.401 335.499 394.801 336.95 393.732 338.021C392.663 339.091 391.213 339.693 389.7 339.695Z" fill="url(#paint1_linear)"/>
</g>
<path d="M388.552 325.825C386.878 325.825 385.24 326.322 383.848 327.252C382.455 328.183 381.37 329.506 380.729 331.054C380.088 332.602 379.92 334.305 380.247 335.949C380.574 337.592 381.38 339.101 382.565 340.286C383.749 341.471 385.258 342.277 386.9 342.604C388.543 342.931 390.246 342.763 391.793 342.122C393.34 341.481 394.663 340.395 395.593 339.002C396.524 337.609 397.021 335.971 397.021 334.296C397.021 333.183 396.801 332.082 396.376 331.054C395.95 330.026 395.327 329.093 394.54 328.306C393.754 327.519 392.82 326.895 391.793 326.47C390.766 326.044 389.665 325.825 388.552 325.825ZM388.552 339.509C387.522 339.509 386.514 339.203 385.657 338.63C384.8 338.058 384.132 337.243 383.738 336.291C383.344 335.338 383.24 334.29 383.442 333.279C383.643 332.268 384.139 331.339 384.868 330.61C385.596 329.881 386.525 329.384 387.536 329.183C388.547 328.982 389.594 329.085 390.547 329.48C391.499 329.874 392.313 330.542 392.885 331.4C393.458 332.257 393.764 333.265 393.764 334.296C393.764 335.678 393.215 337.004 392.237 337.982C391.26 338.96 389.935 339.509 388.552 339.509Z" fill="#6C63FF"/>
<path opacity="0.1" d="M388.552 325.825C386.878 325.825 385.24 326.322 383.848 327.252C382.455 328.183 381.37 329.506 380.729 331.054C380.088 332.602 379.92 334.305 380.247 335.949C380.574 337.592 381.38 339.101 382.565 340.286C383.749 341.471 385.258 342.277 386.9 342.604C388.543 342.931 390.246 342.763 391.793 342.122C393.34 341.481 394.663 340.395 395.593 339.002C396.524 337.609 397.021 335.971 397.021 334.296C397.021 333.183 396.801 332.082 396.376 331.054C395.95 330.026 395.327 329.093 394.54 328.306C393.754 327.519 392.82 326.895 391.793 326.47C390.766 326.044 389.665 325.825 388.552 325.825ZM388.552 339.509C387.522 339.509 386.514 339.203 385.657 338.63C384.8 338.058 384.132 337.243 383.738 336.291C383.344 335.338 383.24 334.29 383.442 333.279C383.643 332.268 384.139 331.339 384.868 330.61C385.596 329.881 386.525 329.384 387.536 329.183C388.547 328.982 389.594 329.085 390.547 329.48C391.499 329.874 392.313 330.542 392.885 331.4C393.458 332.257 393.764 333.265 393.764 334.296C393.764 335.678 393.215 337.004 392.237 337.982C391.26 338.96 389.935 339.509 388.552 339.509Z" fill="black"/>
<path d="M355.983 319.308H388.553V349.413C388.553 351.107 387.88 352.731 386.683 353.929C385.485 355.127 383.861 355.8 382.168 355.8H362.368C360.674 355.8 359.05 355.127 357.853 353.929C356.656 352.731 355.983 351.107 355.983 349.413V319.308Z" fill="#6C63FF"/>
<path d="M422.75 355.8H0V370.135H422.75V355.8Z" fill="#E0E0E0"/>
<g opacity="0.7">
<path opacity="0.7" d="M291.772 252.235H130.978C125.735 252.235 121.484 256.488 121.484 261.733V346.301C121.484 351.547 125.735 355.8 130.978 355.8H291.772C297.016 355.8 301.267 351.547 301.267 346.301V261.733C301.267 256.488 297.016 252.235 291.772 252.235Z" fill="url(#paint2_linear)"/>
</g>
<path d="M280.438 254.146H142.313C132.608 254.146 124.741 262.016 124.741 271.724V338.221C124.741 347.929 132.608 355.8 142.313 355.8H280.438C290.142 355.8 298.01 347.929 298.01 338.221V271.724C298.01 262.016 290.142 254.146 280.438 254.146Z" fill="#535461"/>
<path d="M211.375 310.837C214.613 310.837 217.238 308.212 217.238 304.973C217.238 301.734 214.613 299.108 211.375 299.108C208.137 299.108 205.513 301.734 205.513 304.973C205.513 308.212 208.137 310.837 211.375 310.837Z" fill="white"/>
<path d="M404.837 370.135H17.9131V376H404.837V370.135Z" fill="#E0E0E0"/>
<path opacity="0.1" d="M404.837 370.135H17.9131V372.09H404.837V370.135Z" fill="black"/>
<path opacity="0.1" d="M382.69 319.309V349.446C382.69 351.131 382.021 352.747 380.83 353.939C379.639 355.13 378.023 355.8 376.339 355.8H379.596C381.28 355.8 382.896 355.13 384.087 353.939C385.278 352.747 385.947 351.131 385.947 349.446V319.309H382.69Z" fill="black"/>
<path d="M362.41 295.018C362.132 295.027 361.858 295.097 361.61 295.223C361.361 295.349 361.144 295.529 360.972 295.749C360.545 296.523 361.319 297.397 362.025 297.929C363.331 298.913 364.706 299.879 365.593 301.252C366.481 302.624 366.759 304.54 365.79 305.856C364.523 307.574 361.502 307.943 361.21 310.057C361.022 311.415 362.195 312.573 363.384 313.254C366.317 314.935 370.099 315.384 372.224 318.014C373.103 316.206 375.07 315.161 377.029 314.714C378.989 314.268 381.026 314.301 383.013 313.999C383.337 313.992 383.656 313.91 383.943 313.758C384.23 313.606 384.477 313.388 384.664 313.123C385.219 311.995 383.636 310.642 384.182 309.51C384.598 308.648 385.82 308.715 386.712 308.37C388.165 307.808 388.764 305.938 388.352 304.436C387.939 302.933 386.775 301.759 385.55 300.796C382.25 298.202 378.281 296.676 374.267 295.579C372.4 295.068 370.209 294.268 368.27 294.191C366.398 294.116 364.263 294.701 362.41 295.018Z" fill="#EEEEEE"/>
<path opacity="0.5" d="M565 0H280.5V194.988H565V0Z" fill="white"/>
<g opacity="0.5">
<path opacity="0.5" d="M370.466 19.2034H309.388C307.76 19.2034 306.441 20.5231 306.441 22.1511V78.0679C306.441 79.6959 307.76 81.0156 309.388 81.0156H370.466C372.093 81.0156 373.412 79.6959 373.412 78.0679V22.1511C373.412 20.5231 372.093 19.2034 370.466 19.2034Z" fill="url(#paint3_linear)"/>
</g>
<path d="M369.738 19.6826H310.205C308.578 19.6826 307.258 21.0024 307.258 22.6304V77.0481C307.258 78.6761 308.578 79.9958 310.205 79.9958H369.738C371.365 79.9958 372.685 78.6761 372.685 77.0481V22.6304C372.685 21.0024 371.365 19.6826 369.738 19.6826Z" fill="#F5F5F5"/>
<path d="M320.388 29.6167H315.247C313.62 29.6167 312.301 30.9365 312.301 32.5645V36.6031C312.301 38.2311 313.62 39.5508 315.247 39.5508H320.388C322.015 39.5508 323.334 38.2311 323.334 36.6031V32.5645C323.334 30.9365 322.015 29.6167 320.388 29.6167Z" fill="#6C63FF"/>
<path d="M369.986 29.6167H327.166C326.878 29.6167 326.645 29.8504 326.645 30.1387V30.1986C326.645 30.4868 326.878 30.7205 327.166 30.7205H369.986C370.274 30.7205 370.507 30.4868 370.507 30.1986V30.1387C370.507 29.8504 370.274 29.6167 369.986 29.6167Z" fill="#E0E0E0"/>
<path d="M369.986 32.9281H327.166C326.878 32.9281 326.645 33.1618 326.645 33.45V33.51C326.645 33.7982 326.878 34.0319 327.166 34.0319H369.986C370.274 34.0319 370.507 33.7982 370.507 33.51V33.45C370.507 33.1618 370.274 32.9281 369.986 32.9281Z" fill="#E0E0E0"/>
<path d="M369.985 44.9471H311.719C311.431 44.9471 311.197 45.1808 311.197 45.4691V45.529C311.197 45.8173 311.431 46.0509 311.719 46.0509H369.985C370.274 46.0509 370.507 45.8173 370.507 45.529V45.4691C370.507 45.1808 370.274 44.9471 369.985 44.9471Z" fill="#E0E0E0"/>
<path d="M369.985 48.2585H311.719C311.431 48.2585 311.197 48.4922 311.197 48.7804V48.8404C311.197 49.1286 311.431 49.3623 311.719 49.3623H369.985C370.274 49.3623 370.507 49.1286 370.507 48.8404V48.7804C370.507 48.4922 370.274 48.2585 369.985 48.2585Z" fill="#E0E0E0"/>
<path d="M369.985 52.6737H311.719C311.431 52.6737 311.197 52.9073 311.197 53.1956V53.2555C311.197 53.5438 311.431 53.7775 311.719 53.7775H369.985C370.274 53.7775 370.507 53.5438 370.507 53.2555V53.1956C370.507 52.9073 370.274 52.6737 369.985 52.6737Z" fill="#E0E0E0"/>
<path d="M344.88 55.985H311.719C311.431 55.985 311.197 56.2187 311.197 56.507V56.5669C311.197 56.8551 311.431 57.0888 311.719 57.0888H344.88C345.168 57.0888 345.402 56.8551 345.402 56.5669V56.507C345.402 56.2187 345.168 55.985 344.88 55.985Z" fill="#E0E0E0"/>
<path d="M369.985 60.3895H311.719C311.431 60.3895 311.197 60.6232 311.197 60.9114V60.9713C311.197 61.2596 311.431 61.4933 311.719 61.4933H369.985C370.274 61.4933 370.507 61.2596 370.507 60.9713V60.9114C370.507 60.6232 370.274 60.3895 369.985 60.3895Z" fill="#E0E0E0"/>
<path d="M369.985 63.7009H311.719C311.431 63.7009 311.197 63.9345 311.197 64.2228V64.2827C311.197 64.571 311.431 64.8046 311.719 64.8046H369.985C370.274 64.8046 370.507 64.571 370.507 64.2827V64.2228C370.507 63.9345 370.274 63.7009 369.985 63.7009Z" fill="#E0E0E0"/>
<path d="M369.985 68.116H311.719C311.431 68.116 311.197 68.3497 311.197 68.6379V68.6979C311.197 68.9861 311.431 69.2198 311.719 69.2198H369.985C370.274 69.2198 370.507 68.9861 370.507 68.6979V68.6379C370.507 68.3497 370.274 68.116 369.985 68.116Z" fill="#E0E0E0"/>
<path d="M344.88 71.4274H311.719C311.431 71.4274 311.197 71.661 311.197 71.9493V72.0092C311.197 72.2975 311.431 72.5312 311.719 72.5312H344.88C345.168 72.5312 345.402 72.2975 345.402 72.0092V71.9493C345.402 71.661 345.168 71.4274 344.88 71.4274Z" fill="#E0E0E0"/>
<g opacity="0.5">
<path opacity="0.5" d="M380.573 33.4872H319.495C317.867 33.4872 316.548 34.8069 316.548 36.4349V92.3516C316.548 93.9796 317.867 95.2994 319.495 95.2994H380.573C382.2 95.2994 383.519 93.9796 383.519 92.3516V36.4349C383.519 34.8069 382.2 33.4872 380.573 33.4872Z" fill="url(#paint4_linear)"/>
</g>
<path d="M379.845 33.9664H320.312C318.685 33.9664 317.365 35.2862 317.365 36.9142V91.3319C317.365 92.9599 318.685 94.2796 320.312 94.2796H379.845C381.473 94.2796 382.792 92.9599 382.792 91.3319V36.9142C382.792 35.2862 381.473 33.9664 379.845 33.9664Z" fill="white"/>
<path d="M330.495 43.9005H325.354C323.727 43.9005 322.408 45.2203 322.408 46.8483V50.8869C322.408 52.5149 323.727 53.8346 325.354 53.8346H330.495C332.122 53.8346 333.442 52.5149 333.442 50.8869V46.8483C333.442 45.2203 332.122 43.9005 330.495 43.9005Z" fill="#6C63FF"/>
<path d="M380.093 43.9005H337.273C336.985 43.9005 336.752 44.1342 336.752 44.4225V44.4824C336.752 44.7706 336.985 45.0043 337.273 45.0043H380.093C380.381 45.0043 380.615 44.7706 380.615 44.4824V44.4225C380.615 44.1342 380.381 43.9005 380.093 43.9005Z" fill="#E0E0E0"/>
<path d="M380.093 47.2119H337.273C336.985 47.2119 336.752 47.4456 336.752 47.7338V47.7937C336.752 48.082 336.985 48.3157 337.273 48.3157H380.093C380.381 48.3157 380.615 48.082 380.615 47.7937V47.7338C380.615 47.4456 380.381 47.2119 380.093 47.2119Z" fill="#E0E0E0"/>
<path d="M380.093 59.2309H321.826C321.538 59.2309 321.304 59.4646 321.304 59.7529V59.8128C321.304 60.101 321.538 60.3347 321.826 60.3347H380.093C380.381 60.3347 380.615 60.101 380.615 59.8128V59.7529C380.615 59.4646 380.381 59.2309 380.093 59.2309Z" fill="#E0E0E0"/>
<path d="M380.093 62.5423H321.826C321.538 62.5423 321.304 62.776 321.304 63.0642V63.1241C321.304 63.4124 321.538 63.6461 321.826 63.6461H380.093C380.381 63.6461 380.615 63.4124 380.615 63.1241V63.0642C380.615 62.776 380.381 62.5423 380.093 62.5423Z" fill="#E0E0E0"/>
<path d="M380.093 66.9575H321.826C321.538 66.9575 321.304 67.1911 321.304 67.4794V67.5393C321.304 67.8276 321.538 68.0612 321.826 68.0612H380.093C380.381 68.0612 380.615 67.8276 380.615 67.5393V67.4794C380.615 67.1911 380.381 66.9575 380.093 66.9575Z" fill="#E0E0E0"/>
<path d="M354.988 70.2688H321.826C321.538 70.2688 321.304 70.5025 321.304 70.7907V70.8507C321.304 71.1389 321.538 71.3726 321.826 71.3726H354.988C355.276 71.3726 355.509 71.1389 355.509 70.8507V70.7907C355.509 70.5025 355.276 70.2688 354.988 70.2688Z" fill="#E0E0E0"/>
<path d="M380.093 74.6733H321.826C321.538 74.6733 321.304 74.9069 321.304 75.1952V75.2551C321.304 75.5434 321.538 75.7771 321.826 75.7771H380.093C380.381 75.7771 380.615 75.5434 380.615 75.2551V75.1952C380.615 74.9069 380.381 74.6733 380.093 74.6733Z" fill="#E0E0E0"/>
<path d="M380.093 77.9846H321.826C321.538 77.9846 321.304 78.2183 321.304 78.5066V78.5665C321.304 78.8548 321.538 79.0884 321.826 79.0884H380.093C380.381 79.0884 380.615 78.8548 380.615 78.5665V78.5066C380.615 78.2183 380.381 77.9846 380.093 77.9846Z" fill="#E0E0E0"/>
<path d="M380.093 82.3998H321.826C321.538 82.3998 321.304 82.6335 321.304 82.9217V82.9817C321.304 83.2699 321.538 83.5036 321.826 83.5036H380.093C380.381 83.5036 380.615 83.2699 380.615 82.9817V82.9217C380.615 82.6335 380.381 82.3998 380.093 82.3998Z" fill="#E0E0E0"/>
<path d="M354.988 85.7112H321.826C321.538 85.7112 321.304 85.9448 321.304 86.2331V86.293C321.304 86.5813 321.538 86.8149 321.826 86.8149H354.988C355.276 86.8149 355.509 86.5813 355.509 86.293V86.2331C355.509 85.9448 355.276 85.7112 354.988 85.7112Z" fill="#E0E0E0"/>
<path d="M448.084 42.8383H411.198V78.2908H448.084V42.8383Z" fill="url(#paint5_linear)"/>
<path d="M447.506 43.7066H411.777V77.5673H447.506V43.7066Z" fill="#F5F5F5"/>
<g opacity="0.6">
<path opacity="0.6" d="M436.368 63.8204H423.494V65.5568H436.368V63.8204Z" fill="#6C63FF"/>
</g>
<path d="M440.635 67.0039H418.648V68.7403H440.635V67.0039Z" fill="#BDBDBD"/>
<g opacity="0.5">
<path opacity="0.5" d="M545.413 11.8175H464.979V106.357H545.413V11.8175Z" fill="url(#paint6_linear)"/>
</g>
<path d="M543.702 13.3392H467.451V104.265H543.702V13.3392Z" fill="white"/>
<path d="M532.483 53.2319H478.86V55.5146H532.483V53.2319Z" fill="#E0E0E0"/>
<path d="M532.483 68.2594H478.86V70.542H532.483V68.2594Z" fill="#E0E0E0"/>
<path d="M532.483 72.254H478.86V74.5367H532.483V72.254Z" fill="#E0E0E0"/>
<path d="M501.488 64.2647H478.86V66.5474H501.488V64.2647Z" fill="#E0E0E0"/>
<path opacity="0.6" d="M532.483 64.2647H515.559V66.5474H532.483V64.2647Z" fill="#3AD29F"/>
<path d="M514.609 81.5748H497.685V83.8575H514.609V81.5748Z" fill="#6C63FF"/>
<g opacity="0.5">
<path opacity="0.5" d="M465.841 132.947H418.049V172.215H465.841V132.947Z" fill="url(#paint7_linear)"/>
</g>
<path d="M465.191 133.689H418.606V171.566H465.191V133.689Z" fill="#F2F2F2"/>
<path d="M465.191 133.689H418.606V142.137H465.191V133.689Z" fill="#6C63FF"/>
<path opacity="0.1" d="M465.191 133.689H418.606V142.137H465.191V133.689Z" fill="black"/>
<path d="M461.479 145.201H422.318V150.121H461.479V145.201Z" fill="#E0E0E0"/>
<path d="M450.9 153.834H422.318V155.505H450.9V153.834Z" fill="#E0E0E0"/>
<path d="M440.878 156.712H422.318V158.383H440.878V156.712Z" fill="#E0E0E0"/>
<path d="M446.817 159.59H422.318V161.261H446.817V159.59Z" fill="#E0E0E0"/>
<path d="M450.9 162.468H422.318V164.139H450.9V162.468Z" fill="#E0E0E0"/>
<path d="M431.876 165.346H422.318V167.017H431.876V165.346Z" fill="#E0E0E0"/>
<g opacity="0.5">
<path opacity="0.5" d="M447.361 118.544H388.124V167.216H447.361V118.544Z" fill="url(#paint8_linear)"/>
</g>
<path d="M446.556 119.464H388.814V166.411H446.556V119.464Z" fill="white"/>
<path d="M446.556 119.464H388.814V129.935H446.556V119.464Z" fill="#6C63FF"/>
<path d="M441.955 133.732H393.415V139.831H441.955V133.732Z" fill="#F5F5F5"/>
<path d="M428.842 144.433H393.415V146.505H428.842V144.433Z" fill="#E0E0E0"/>
<path d="M416.42 148.001H393.415V150.072H416.42V148.001Z" fill="#E0E0E0"/>
<path d="M423.781 151.568H393.415V153.639H423.781V151.568Z" fill="#E0E0E0"/>
<path d="M428.842 155.135H393.415V157.206H428.842V155.135Z" fill="#E0E0E0"/>
<path d="M405.262 158.702H393.415V160.773H405.262V158.702Z" fill="#E0E0E0"/>
<path d="M409.748 135.804H395.946V137.645H409.748V135.804Z" fill="#69F0AE"/>
<path opacity="0.5" d="M307.351 247.797C311.768 247.797 315.349 244.215 315.349 239.796C315.349 235.377 311.768 231.795 307.351 231.795C302.934 231.795 299.353 235.377 299.353 239.796C299.353 244.215 302.934 247.797 307.351 247.797Z" fill="white"/>
<path opacity="0.5" d="M322.204 222.08C326.621 222.08 330.202 218.498 330.202 214.079C330.202 209.66 326.621 206.078 322.204 206.078C317.787 206.078 314.206 209.66 314.206 214.079C314.206 218.498 317.787 222.08 322.204 222.08Z" fill="white"/>
<defs>
<linearGradient id="paint0_linear" x1="211.659" y1="318.414" x2="211.659" y2="73.8748" gradientUnits="userSpaceOnUse">
<stop stop-color="#808080" stop-opacity="0.25"/>
<stop offset="0.53514" stop-color="#808080" stop-opacity="0.12"/>
<stop offset="1" stop-color="#808080" stop-opacity="0.1"/>
</linearGradient>
<linearGradient id="paint1_linear" x1="33773.6" y1="28646.3" x2="33773.6" y2="26207.9" gradientUnits="userSpaceOnUse">
<stop stop-color="#808080" stop-opacity="0.25"/>
<stop offset="0.53514" stop-color="#808080" stop-opacity="0.12"/>
<stop offset="1" stop-color="#808080" stop-opacity="0.1"/>
</linearGradient>
<linearGradient id="paint2_linear" x1="58156" y1="56504.6" x2="58156" y2="40130.9" gradientUnits="userSpaceOnUse">
<stop stop-color="#808080" stop-opacity="0.25"/>
<stop offset="0.53514" stop-color="#808080" stop-opacity="0.12"/>
<stop offset="1" stop-color="#808080" stop-opacity="0.1"/>
</linearGradient>
<linearGradient id="paint3_linear" x1="35072.7" y1="7664.02" x2="35072.7" y2="1831.28" gradientUnits="userSpaceOnUse">
<stop stop-color="#808080" stop-opacity="0.25"/>
<stop offset="0.53514" stop-color="#808080" stop-opacity="0.12"/>
<stop offset="1" stop-color="#808080" stop-opacity="0.1"/>
</linearGradient>
<linearGradient id="paint4_linear" x1="36116.5" y1="9026.15" x2="36116.5" y2="3193.41" gradientUnits="userSpaceOnUse">
<stop stop-color="#808080" stop-opacity="0.25"/>
<stop offset="0.53514" stop-color="#808080" stop-opacity="0.12"/>
<stop offset="1" stop-color="#808080" stop-opacity="0.1"/>
</linearGradient>
<linearGradient id="paint5_linear" x1="24613.1" y1="4280.05" x2="24613.1" y2="2361.31" gradientUnits="userSpaceOnUse">
<stop stop-color="#808080" stop-opacity="0.25"/>
<stop offset="0.53514" stop-color="#808080" stop-opacity="0.12"/>
<stop offset="1" stop-color="#808080" stop-opacity="0.1"/>
</linearGradient>
<linearGradient id="paint6_linear" x1="62520.8" y1="15361.7" x2="62520.8" y2="1717.36" gradientUnits="userSpaceOnUse">
<stop stop-color="#808080" stop-opacity="0.25"/>
<stop offset="0.53514" stop-color="#808080" stop-opacity="0.12"/>
<stop offset="1" stop-color="#808080" stop-opacity="0.1"/>
</linearGradient>
<linearGradient id="paint7_linear" x1="32673.8" y1="10456.9" x2="32673.8" y2="8102.79" gradientUnits="userSpaceOnUse">
<stop stop-color="#808080" stop-opacity="0.25"/>
<stop offset="0.53514" stop-color="#808080" stop-opacity="0.12"/>
<stop offset="1" stop-color="#808080" stop-opacity="0.1"/>
</linearGradient>
<linearGradient id="paint8_linear" x1="38178.9" y1="12543.3" x2="38178.9" y2="8926.77" gradientUnits="userSpaceOnUse">
<stop stop-color="#808080" stop-opacity="0.25"/>
<stop offset="0.53514" stop-color="#808080" stop-opacity="0.12"/>
<stop offset="1" stop-color="#808080" stop-opacity="0.1"/>
</linearGradient>
</defs>
</svg>
